<?xml version="1.0" encoding="UTF-8" standalone="no"?>
<svg
   version="1.1"
   x="0px"
   y="0px"
   viewBox="0 0 100 125"
   enable-background="new 0 0 100 100"
   xml:space="preserve"
   id="svg3"
   sodipodi:docname="noun-tank-97020.svg"
   inkscape:version="1.4 (86a8ad7, 2024-10-11)"
   xmlns:inkscape="http://www.inkscape.org/namespaces/inkscape"
   xmlns:sodipodi="http://sodipodi.sourceforge.net/DTD/sodipodi-0.dtd"
   xmlns="http://www.w3.org/2000/svg"
   xmlns:svg="http://www.w3.org/2000/svg"><defs
     id="defs3" /><sodipodi:namedview
     id="namedview3"
     pagecolor="#505050"
     bordercolor="#eeeeee"
     borderopacity="1"
     inkscape:showpageshadow="0"
     inkscape:pageopacity="0"
     inkscape:pagecheckerboard="0"
     inkscape:deskcolor="#505050"
     inkscape:zoom="6.456"
     inkscape:cx="49.953532"
     inkscape:cy="62.5"
     inkscape:window-width="1920"
     inkscape:window-height="1009"
     inkscape:window-x="-8"
     inkscape:window-y="-8"
     inkscape:window-maximized="1"
     inkscape:current-layer="svg3" /><path
     d="M85,20H75c-1.381,0-2.5,1.119-2.5,2.5V30H56.25V7.5c0-1.381-1.119-2.5-2.5-2.5h-7.5c-1.381,0-2.5,1.119-2.5,2.5V30H27.5  v-7.5c0-1.381-1.119-2.5-2.5-2.5H15c-1.381,0-2.5,1.119-2.5,2.5v70c0,1.381,1.119,2.5,2.5,2.5h10c1.381,0,2.5-1.119,2.5-2.5V85h45  v7.5c0,1.381,1.119,2.5,2.5,2.5h10c1.381,0,2.5-1.119,2.5-2.5v-70C87.5,21.119,86.381,20,85,20z M77.5,90v-5h5v5H77.5z M22.5,25v5  h-5v-5H22.5z M22.5,40h-5v-5h5V40z M22.5,45v5h-5v-5H22.5z M22.5,55v5h-5v-5H22.5z M22.5,65v5h-5v-5H22.5z M22.5,75v5h-5v-5H22.5z   M17.5,90v-5h5v5H17.5z M27.5,35h16.25v5H42.5c-0.663,0-1.299,0.263-1.768,0.732l-7.5,7.5C32.763,48.701,32.5,49.337,32.5,50v15  c0,0.663,0.263,1.299,0.732,1.768l7.5,7.5C41.201,74.737,41.837,75,42.5,75h15c0.663,0,1.299-0.263,1.768-0.732l7.5-7.5  C67.237,66.299,67.5,65.663,67.5,65V50c0-0.663-0.263-1.299-0.732-1.768l-7.5-7.5C58.799,40.263,58.163,40,57.5,40h-1.25v-5H72.5v45  h-45V35z M51.25,10v30h-2.5V10H51.25z M56.464,45l6.036,6.036v12.929L56.464,70H43.536L37.5,63.964V51.036L43.536,45H56.464z   M82.5,25v5h-5v-5H82.5z M77.5,75h5v5h-5V75z M77.5,70v-5h5v5H77.5z M77.5,60v-5h5v5H77.5z M77.5,50v-5h5v5H77.5z M77.5,40v-5h5v5  H77.5z"
     id="path1"
     style="stroke:#39ff14;stroke-opacity:1;fill:#39ff14;fill-opacity:0.50124067" /><path
     d="M42.5,57.5c0,4.136,3.364,7.5,7.5,7.5s7.5-3.364,7.5-7.5S54.136,50,50,50S42.5,53.364,42.5,57.5z M50,55  c1.378,0,2.5,1.122,2.5,2.5S51.378,60,50,60s-2.5-1.122-2.5-2.5S48.622,55,50,55z"
     id="path2"
     style="stroke:#39ff14;stroke-opacity:1;fill:#39ff14;fill-opacity:0.50124067" /></svg>
